<svg width="40" height="40" viewBox="0 0 40 40" fill="none" xmlns="http://www.w3.org/2000/svg">
<path d="M32.3625 0.837402C31.0409 0.837402 29.9625 1.9126 29.9625 3.2374V4.54678C27.0905 2.68998 23.6752 1.59991 20 1.59991C9.83764 1.59991 1.60004 9.83751 1.60004 19.9999C1.60004 30.1623 9.83764 38.3999 20 38.3999C30.1624 38.3999 38.4 30.1623 38.4 19.9999C38.4 15.8839 37.0473 12.0905 34.7625 9.02491V3.23741C34.7625 1.91261 33.6873 0.837402 32.3625 0.837402ZM32.3625 2.4374C32.8065 2.4374 33.1625 2.7934 33.1625 3.2374V10.5812H25.8188C25.3748 10.5812 25.0188 10.222 25.0188 9.78115C25.0188 9.34035 25.3748 8.98115 25.8188 8.98115H30.4969C27.6905 6.28675 23.9472 4.7624 20 4.7624C11.6184 4.7624 4.80004 11.5808 4.80004 19.9624C4.80004 28.3464 11.6184 35.1624 20 35.1624C28.3816 35.1624 35.2 28.344 35.2 19.9624C35.2 17.5656 34.6247 15.1492 33.5375 12.978L34.9688 12.2593C36.1688 14.6529 36.8 17.3184 36.8 19.9624C36.8 29.2272 29.2624 36.7624 20 36.7624C10.7376 36.7624 3.20004 29.228 3.20004 19.9624C3.20004 10.7 10.7376 3.1624 20 3.1624C24.3408 3.1624 28.4689 4.8314 31.5625 7.7874V3.2374C31.5625 2.7934 31.9217 2.4374 32.3625 2.4374ZM18.4 7.9999H20V19.4249C20.4784 19.7033 20.8 20.2087 20.8 20.7999C20.8 21.6839 20.084 22.3999 19.2 22.3999C19.0624 22.3999 18.928 22.3835 18.8 22.3499L13.375 27.7749L12.225 26.6249L17.65 21.1999C17.6164 21.0719 17.6 20.9375 17.6 20.7999C17.6 20.2095 17.9216 19.7033 18.4 19.4249V7.9999Z" fill="#D52D2D"/>
</svg>
