<svg width="44" height="58" viewBox="0 0 44 58" fill="none" xmlns="http://www.w3.org/2000/svg">
<path d="M10.5029 32.1915C9.34816 30.1915 10.7915 27.6915 13.1009 27.6915L30.0916 27.6915C32.401 27.6915 33.8444 30.1915 32.6897 32.1915L24.1943 46.9058C23.0396 48.9058 20.1529 48.9058 18.9982 46.9058L10.5029 32.1915Z" fill="#D52D2D"/>
<rect x="2" width="40" height="40" rx="20" fill="#D52D2D"/>
<path d="M6.91122 23H5.21094L7.41939 16.4545H9.52557L11.734 23H10.0337L8.49645 18.1037H8.44531L6.91122 23ZM6.6843 20.424H10.2383V21.6257H6.6843V20.424ZM15.7746 18.4169C15.7533 18.1825 15.6585 18.0004 15.4901 17.8704C15.324 17.7383 15.0864 17.6722 14.7774 17.6722C14.5729 17.6722 14.4024 17.6989 14.2661 17.7521C14.1297 17.8054 14.0274 17.8789 13.9593 17.9727C13.8911 18.0643 13.8559 18.1697 13.8538 18.2891C13.8495 18.3871 13.8687 18.4734 13.9113 18.5479C13.9561 18.6225 14.02 18.6886 14.1031 18.7461C14.1883 18.8015 14.2906 18.8505 14.4099 18.8931C14.5292 18.9357 14.6634 18.973 14.8126 19.005L15.3751 19.1328C15.699 19.2031 15.9845 19.2969 16.2316 19.4141C16.4809 19.5312 16.6897 19.6708 16.858 19.8327C17.0285 19.9947 17.1574 20.1811 17.2448 20.392C17.3321 20.603 17.3769 20.8395 17.379 21.1016C17.3769 21.5149 17.2725 21.8697 17.0658 22.1658C16.8591 22.462 16.5619 22.6889 16.1741 22.8466C15.7884 23.0043 15.3229 23.0831 14.7774 23.0831C14.2298 23.0831 13.7526 23.0011 13.3456 22.837C12.9387 22.6729 12.6222 22.4237 12.3964 22.0891C12.1705 21.7546 12.0544 21.3317 12.048 20.8203H13.5629C13.5757 21.0312 13.6322 21.207 13.7323 21.3477C13.8325 21.4883 13.9699 21.5948 14.1446 21.6673C14.3215 21.7397 14.526 21.7759 14.7583 21.7759C14.9713 21.7759 15.1524 21.7472 15.3016 21.6896C15.4529 21.6321 15.569 21.5522 15.6499 21.4499C15.7309 21.3477 15.7725 21.2305 15.7746 21.0984C15.7725 20.9748 15.7341 20.8693 15.6595 20.782C15.585 20.6925 15.4699 20.6158 15.3144 20.5518C15.161 20.4858 14.9649 20.4251 14.7263 20.3697L14.0423 20.2099C13.4756 20.0799 13.0292 19.87 12.7032 19.5803C12.3772 19.2884 12.2153 18.8942 12.2174 18.3977C12.2153 17.9929 12.324 17.6381 12.5434 17.3335C12.7629 17.0288 13.0665 16.7912 13.4543 16.6207C13.8421 16.4503 14.2842 16.3651 14.7806 16.3651C15.2877 16.3651 15.7277 16.4513 16.1006 16.6239C16.4756 16.7944 16.7664 17.0341 16.9731 17.343C17.1798 17.652 17.2852 18.0099 17.2895 18.4169H15.7746ZM18.178 23V16.4545H20.9074C21.3975 16.4545 21.8076 16.5238 22.1379 16.6623C22.4703 16.8008 22.7195 16.9947 22.8857 17.244C23.0541 17.4933 23.1382 17.782 23.1382 18.1101C23.1382 18.3594 23.086 18.582 22.9816 18.7781C22.8772 18.9719 22.7334 19.1328 22.5502 19.2607C22.3669 19.3885 22.1549 19.478 21.9142 19.5291V19.593C22.1784 19.6058 22.4223 19.6772 22.646 19.8072C22.8719 19.9371 23.053 20.1183 23.1894 20.3505C23.3257 20.5806 23.3939 20.8533 23.3939 21.1687C23.3939 21.5202 23.3044 21.8345 23.1254 22.1115C22.9465 22.3864 22.6876 22.6037 22.3488 22.7635C22.01 22.9212 21.5988 23 21.1151 23H18.178ZM19.76 21.7248H20.738C21.0811 21.7248 21.3335 21.6598 21.4955 21.5298C21.6595 21.3999 21.7416 21.2188 21.7416 20.9865C21.7416 20.8182 21.7021 20.6733 21.6233 20.5518C21.5445 20.4283 21.4326 20.3335 21.2877 20.2674C21.1428 20.1992 20.9692 20.1651 20.7668 20.1651H19.76V21.7248ZM19.76 19.1456H20.6357C20.8083 19.1456 20.9617 19.1168 21.096 19.0593C21.2302 19.0018 21.3346 18.9187 21.4092 18.81C21.4859 18.7013 21.5242 18.5703 21.5242 18.4169C21.5242 18.1974 21.4465 18.0249 21.2909 17.8991C21.1354 17.7734 20.9255 17.7106 20.6613 17.7106H19.76V19.1456ZM25.5704 23H23.8701L26.0786 16.4545H28.1847L30.3932 23H28.6929L27.1556 18.1037H27.1045L25.5704 23ZM25.3435 20.424H28.8975V21.6257H25.3435V20.424ZM35.0578 16.4545H36.6366V20.6765C36.6366 21.1644 36.5205 21.5895 36.2883 21.9517C36.056 22.3118 35.7322 22.5909 35.3167 22.7891C34.9012 22.9851 34.4186 23.0831 33.8689 23.0831C33.3128 23.0831 32.827 22.9851 32.4115 22.7891C31.996 22.5909 31.6732 22.3118 31.4431 21.9517C31.213 21.5895 31.0979 21.1644 31.0979 20.6765V16.4545H32.68V20.5391C32.68 20.7649 32.729 20.9663 32.827 21.1431C32.9271 21.32 33.0667 21.4585 33.2457 21.5586C33.4246 21.6587 33.6324 21.7088 33.8689 21.7088C34.1054 21.7088 34.3121 21.6587 34.4889 21.5586C34.6679 21.4585 34.8074 21.32 34.9076 21.1431C35.0077 20.9663 35.0578 20.7649 35.0578 20.5391V16.4545Z" fill="white"/>
</svg>
