<svg width="16" height="16" viewBox="0 0 16 16" fill="none" xmlns="http://www.w3.org/2000/svg">
<path d="M6.72003 0.959999C3.71878 0.959999 1.28003 3.39875 1.28003 6.4C1.28003 9.40125 3.71878 11.84 6.72003 11.84C7.90753 11.84 9.00503 11.4575 9.90003 10.81L14.11 15.01L15.01 14.11L10.85 9.94C11.6675 8.9875 12.16 7.75125 12.16 6.4C12.16 3.39875 9.72128 0.959999 6.72003 0.959999ZM6.72003 1.6C9.37503 1.6 11.52 3.745 11.52 6.4C11.52 9.055 9.37503 11.2 6.72003 11.2C4.06503 11.2 1.92003 9.055 1.92003 6.4C1.92003 3.745 4.06503 1.6 6.72003 1.6Z" fill="#333333"/>
</svg>
